<svg xmlns="http://www.w3.org/2000/svg" xmlns:xlink="http://www.w3.org/1999/xlink" viewBox="0 0 108.03 112"><defs><style>.cls-1{fill:url(#radial-gradient);}.cls-2{fill:url(#linear-gradient);}.cls-3{fill:url(#linear-gradient-2);}</style><radialGradient id="radial-gradient" cx="54.04" cy="26.64" r="40.3" gradientUnits="userSpaceOnUse"><stop offset="0.01" stop-color="#120a29"/><stop offset="0.17" stop-color="#382a56"/><stop offset="0.34" stop-color="#58457b"/><stop offset="0.52" stop-color="#715b99"/><stop offset="0.68" stop-color="#846aae"/><stop offset="0.85" stop-color="#8e73bb"/><stop offset="1" stop-color="#9276bf"/></radialGradient><linearGradient id="linear-gradient" x1="-13.06" y1="34.69" x2="108.03" y2="34.69" gradientUnits="userSpaceOnUse"><stop offset="0.31" stop-color="#dcec73"/><stop offset="0.38" stop-color="#d6e473"/><stop offset="0.48" stop-color="#c4ce75"/><stop offset="0.62" stop-color="#a7aa77"/><stop offset="0.77" stop-color="#7f7879"/><stop offset="0.94" stop-color="#4c387d"/><stop offset="1" stop-color="#371e7e"/></linearGradient><linearGradient id="linear-gradient-2" x1="-13.06" y1="32" x2="108.03" y2="32" gradientUnits="userSpaceOnUse"><stop offset="0" stop-color="#371e7e"/><stop offset="0.05" stop-color="#432d7d"/><stop offset="0.56" stop-color="#b0b576"/><stop offset="0.78" stop-color="#dcec73"/></linearGradient></defs><g id="Layer_2" data-name="Layer 2"><g id="foreground_copy_2" data-name="foreground copy 2"><path class="cls-1" d="M54.08,112h0a6.44,6.44,0,0,1-6.43-6.1L42.67,12A11.39,11.39,0,0,1,54,0h0A11.39,11.39,0,0,1,65.41,12l-4.9,93.92A6.44,6.44,0,0,1,54.08,112Z"/><path class="cls-2" d="M106.45,37.6A64.45,64.45,0,0,0,92.36,27.29l-.26-.14a74.24,74.24,0,0,0-7.58-3.58c-37.95-3.1-65.8,13.51-77.28,21.94q2.53-1.27,5.31-2.41c.72-.3,1.43-.6,2.18-.88l0,0C25.82,38,39.36,35.55,54,35.55c18.32,0,34.93,3.85,47.08,10.1a4.82,4.82,0,0,0,3.94.23C108.38,44.6,109,40.12,106.45,37.6Z"/><path class="cls-3" d="M89.54,25.83c-1.65-.82-3.34-1.59-5.08-2.29h0l0,0,0,0h0A81.86,81.86,0,0,0,54,17.8c-21.2,0-40.1,7.73-52.46,19.8C-1,40.12-.35,44.6,3,45.88A4.82,4.82,0,0,0,7,45.65c1.76-.91,3.64-1.75,5.59-2.55.72-.3,1.43-.6,2.18-.88l0,0c.6-.23,1.22-.45,1.85-.67A115.23,115.23,0,0,1,89.54,25.83Z"/></g></g></svg>